<svg width="812" height="410" viewBox="0 0 812 410" fill="none" xmlns="http://www.w3.org/2000/svg">
<g clip-path="url(#clip0_11_298)">
<path d="M215.56 196.377L214.051 196.383L213.865 155.027C213.85 151.883 213.218 148.774 212.002 145.875C210.787 142.976 209.013 140.345 206.781 138.133C204.549 135.92 201.904 134.169 198.996 132.979C196.088 131.789 192.974 131.184 189.832 131.198L102.254 131.593C95.9085 131.622 89.8346 134.171 85.368 138.681C80.9015 143.19 78.4083 149.289 78.437 155.638L79.4606 382.524C79.4748 385.667 80.1076 388.777 81.3231 391.675C82.5385 394.574 84.3127 397.205 86.5443 399.417C88.776 401.63 91.4214 403.381 94.3295 404.571C97.2376 405.761 100.351 406.366 103.493 406.352L191.071 405.957C197.417 405.928 203.491 403.379 207.957 398.87C212.424 394.361 214.917 388.261 214.888 381.913L214.184 225.822L215.693 225.815L215.56 196.377Z" fill="#2F2E41"/>
<path d="M190.825 137.421L179.393 137.473C179.925 138.76 180.132 140.158 179.996 141.544C179.86 142.93 179.386 144.262 178.615 145.421C177.844 146.58 176.799 147.532 175.574 148.193C174.348 148.853 172.979 149.202 171.587 149.208L121.415 149.435C120.023 149.441 118.651 149.104 117.419 148.455C116.188 147.806 115.135 146.863 114.353 145.711C113.571 144.559 113.085 143.232 112.937 141.847C112.789 140.462 112.983 139.062 113.503 137.77L102.825 137.818C98.0868 137.84 93.5508 139.744 90.2153 143.111C86.8798 146.478 85.0179 151.033 85.0393 155.774L86.0614 382.327C86.072 384.675 86.5446 386.997 87.4523 389.162C88.3599 391.327 89.6849 393.291 91.3514 394.944C93.018 396.596 94.9936 397.904 97.1653 398.792C99.337 399.681 101.662 400.133 104.009 400.122L192.009 399.725C194.355 399.714 196.676 399.242 198.84 398.334C201.003 397.425 202.967 396.1 204.619 394.433C206.27 392.765 207.577 390.789 208.466 388.616C209.354 386.443 209.805 384.117 209.795 381.769L208.773 155.216C208.762 152.869 208.289 150.546 207.382 148.382C206.474 146.217 205.149 144.252 203.483 142.6C201.816 140.948 199.84 139.64 197.669 138.751C195.497 137.863 193.172 137.411 190.825 137.421Z" fill="white"/>
<path d="M188.805 232.726L109.602 233.084L109.843 286.544L189.047 286.187L188.805 232.726Z" fill="white"/>
<path d="M189.321 286.459L109.571 286.818L109.327 232.812L189.077 232.452L189.321 286.459ZM110.115 286.269L188.772 285.915L188.534 233.001L109.876 233.356L110.115 286.269Z" fill="#3F3D56"/>
<path d="M116.483 274.795L182.3 274.498L182.131 236.998L116.314 237.295L116.483 274.795Z" fill="#E6E6E6"/>
<path d="M135.781 260.523C139.424 260.506 142.364 257.538 142.348 253.893C142.331 250.248 139.365 247.307 135.721 247.323C132.078 247.34 129.138 250.308 129.155 253.953C129.171 257.598 132.138 260.539 135.781 260.523Z" fill="#FFD700"/>
<path d="M156.529 274.168L124.168 274.314C124.128 274.315 124.087 274.312 124.047 274.305L139.233 247.712C139.326 247.547 139.461 247.409 139.624 247.312C139.788 247.216 139.974 247.165 140.163 247.164C140.353 247.163 140.539 247.212 140.704 247.307C140.868 247.402 141.004 247.539 141.098 247.704L151.45 265.457L151.946 266.306L156.529 274.168Z" fill="#3F3D56"/>
<path opacity="0.2" d="M156.529 274.168L145.481 274.218L150.869 266.311L151.257 265.741L151.451 265.456L151.946 266.306L156.529 274.168Z" fill="black"/>
<path d="M174.548 274.086L146.558 274.213L151.946 266.306L152.334 265.737L159.356 255.433C159.48 255.275 159.636 255.146 159.813 255.053C159.991 254.959 160.186 254.904 160.386 254.892C160.586 254.879 160.787 254.908 160.975 254.978C161.163 255.048 161.334 255.156 161.478 255.296C161.515 255.336 161.549 255.379 161.58 255.423L174.548 274.086Z" fill="#3F3D56"/>
<path d="M381.706 405.302L169.42 406.26C164.389 406.277 159.556 404.296 155.982 400.753C152.408 397.209 150.385 392.392 150.356 387.358L148.967 79.3491C148.95 74.3151 150.929 69.48 154.471 65.9043C158.013 62.3287 162.828 60.3047 167.859 60.2763L380.145 59.3186C385.177 59.3016 390.01 61.2821 393.584 64.8256C397.158 68.3691 399.181 73.1862 399.209 78.2202L400.599 386.229C400.616 391.263 398.636 396.098 395.094 399.674C391.552 403.249 386.738 405.273 381.706 405.302Z" fill="#2F2E41"/>
<path d="M382.025 393.186L168.992 394.147C167.441 394.152 165.951 393.542 164.849 392.449C163.748 391.357 163.124 389.872 163.115 388.32L161.716 78.2717C161.711 76.7199 162.321 75.2294 163.413 74.1272C164.505 73.025 165.989 72.4011 167.54 72.3923L380.573 71.4312C382.125 71.426 383.614 72.0365 384.716 73.1288C385.818 74.2211 386.441 75.706 386.45 77.2578L387.849 387.307C387.854 388.858 387.244 390.349 386.152 391.451C385.06 392.553 383.576 393.177 382.025 393.186Z" fill="white"/>
<path d="M273.229 67.2312C274.12 67.2272 274.84 66.5007 274.836 65.6087C274.832 64.7166 274.106 63.9967 273.214 64.0007C272.322 64.0047 271.603 64.7312 271.607 65.6232C271.611 66.5153 272.337 67.2352 273.229 67.2312Z" fill="white"/>
<path d="M363.24 160.023L195.623 160.779L196.133 273.915L363.75 273.159L363.24 160.023Z" fill="white"/>
<path d="M364.331 273.735L195.558 274.496L195.042 160.203L363.815 159.442L364.331 273.735ZM196.709 273.334L363.169 272.583L362.664 160.604L196.203 161.355L196.709 273.334Z" fill="#3F3D56"/>
<path d="M210.186 249.051L349.473 248.423L349.115 169.062L209.828 169.691L210.186 249.051Z" fill="#E6E6E6"/>
<path d="M251.026 218.848C258.736 218.813 264.958 212.532 264.923 204.818C264.888 197.104 258.61 190.879 250.9 190.914C243.19 190.949 236.968 197.23 237.003 204.944C237.038 212.657 243.316 218.882 251.026 218.848Z" fill="#FFD700"/>
<path d="M294.935 247.724L226.45 248.033C226.364 248.034 226.279 248.028 226.194 248.014L258.331 191.737C258.527 191.386 258.813 191.094 259.159 190.89C259.504 190.686 259.898 190.578 260.3 190.576C260.701 190.574 261.096 190.679 261.444 190.88C261.791 191.081 262.079 191.37 262.279 191.719L284.186 229.289L285.236 231.087L294.935 247.724Z" fill="#3F3D56"/>
<path opacity="0.2" d="M294.935 247.724L271.553 247.829L282.956 231.097L283.777 229.892L284.187 229.289L285.236 231.087L294.935 247.724Z" fill="black"/>
<path d="M333.066 247.552L273.833 247.819L285.236 231.087L286.056 229.881L300.916 208.076C301.179 207.743 301.509 207.468 301.884 207.271C302.26 207.074 302.673 206.958 303.097 206.93C303.52 206.903 303.945 206.965 304.343 207.113C304.741 207.261 305.103 207.49 305.407 207.787C305.485 207.872 305.557 207.961 305.624 208.055L333.066 247.552Z" fill="#3F3D56"/>
<path d="M592.451 400.693L581.686 396.215L574.071 342.355L475.908 342.798L468.16 396.507L458.568 401.36C458.109 401.592 457.742 401.972 457.526 402.439C457.31 402.906 457.258 403.432 457.379 403.933C457.499 404.433 457.785 404.878 458.19 405.195C458.594 405.513 459.094 405.684 459.609 405.682L591.586 405.086C592.113 405.084 592.623 404.899 593.029 404.563C593.435 404.228 593.713 403.762 593.815 403.244C593.917 402.727 593.837 402.19 593.588 401.725C593.34 401.26 592.938 400.896 592.451 400.693Z" fill="#2F2E41"/>
<path d="M766.663 348.657L284.458 350.832C281.928 350.838 279.499 349.84 277.704 348.056C275.909 346.272 274.895 343.849 274.883 341.318L274.576 273.288L775.845 271.026L776.152 339.056C776.163 341.587 775.17 344.02 773.392 345.819C771.613 347.619 769.193 348.64 766.663 348.657Z" fill="#3F3D56"/>
<path d="M776.494 303.177L274.281 305.442L272.968 14.3582C272.958 11.3034 274.159 8.36929 276.308 6.19954C278.458 4.02979 281.379 2.8016 284.433 2.7844L763.612 0.622548C766.665 0.612183 769.598 1.81396 771.767 3.96423C773.936 6.1145 775.163 9.03765 775.181 12.0924L776.494 303.177Z" fill="#3D3446"/>
<path d="M746.403 282.185L304.181 284.18C301.827 284.188 299.566 283.262 297.894 281.604C296.222 279.946 295.276 277.693 295.262 275.338L294.168 32.7506C294.16 30.3955 295.086 28.1334 296.743 26.4605C298.4 24.7877 300.652 23.8408 303.006 23.8274L745.229 21.8323C747.583 21.8244 749.844 22.751 751.516 24.4088C753.188 26.0666 754.134 28.3203 754.147 30.6754L755.242 273.262C755.25 275.617 754.324 277.879 752.667 279.552C751.01 281.225 748.757 282.172 746.403 282.185Z" fill="white"/>
<path d="M810.214 405.539L3.59063 409.178C3.3361 409.185 3.08656 409.107 2.88088 408.957C2.6752 408.806 2.52494 408.592 2.4535 408.348C2.40884 408.181 2.40293 408.007 2.43624 407.838C2.46956 407.669 2.54121 407.51 2.64567 407.373C2.75013 407.236 2.88462 407.124 3.03879 407.047C3.19296 406.971 3.36269 406.93 3.53494 406.929L810.112 403.29C810.38 403.28 810.644 403.36 810.861 403.519C811.078 403.678 811.235 403.905 811.306 404.164C811.343 404.329 811.343 404.499 811.305 404.664C811.268 404.828 811.194 404.982 811.089 405.113C810.985 405.245 810.852 405.352 810.7 405.426C810.549 405.499 810.382 405.538 810.214 405.539Z" fill="#2F2E41"/>
<path d="M629.557 108.265C631.794 101.017 636.927 94.3555 644.055 91.8764C651.183 89.3974 663.648 91.6284 667.046 98.4051C671.942 108.172 669.816 120.169 667.291 130.809C665.949 130.744 664.595 130.694 663.237 130.649L661.287 124.253L661.315 130.595C650.715 130.315 639.681 130.57 628.642 130.832C627.618 123.312 627.32 115.514 629.557 108.265Z" fill="#2F2E41"/>
<path d="M728.193 383.629L719.293 387.407L700.491 354.864L713.626 349.287L728.193 383.629Z" fill="#9F616A"/>
<path d="M734.124 391.295L705.429 403.479L705.275 403.116C704.018 400.152 703.989 396.81 705.195 393.826C706.4 390.841 708.742 388.457 711.703 387.199L729.23 379.758L734.124 391.295Z" fill="#2F2E41"/>
<path d="M596.746 230.093C596.186 229.292 595.808 228.377 595.639 227.413C595.47 226.45 595.514 225.461 595.769 224.516C596.023 223.572 596.482 222.694 597.112 221.946C597.742 221.198 598.528 220.597 599.415 220.186L618.318 162.246L631.183 169.036L608.557 223.854C609.148 225.391 609.156 227.092 608.578 228.634C608 230.176 606.877 231.453 605.421 232.222C603.966 232.991 602.278 233.199 600.679 232.807C599.081 232.414 597.681 231.449 596.746 230.093Z" fill="#9F616A"/>
<path d="M621.116 394.483L611.449 394.527L606.681 357.242L620.949 357.177L621.116 394.483Z" fill="#9F616A"/>
<path d="M623.624 403.848L592.452 403.987L592.451 403.593C592.436 400.374 593.701 397.28 595.966 394.994C598.231 392.707 601.311 391.414 604.529 391.4L623.568 391.315L623.624 403.848Z" fill="#2F2E41"/>
<path d="M658.919 182.12L661.136 187.809L660.723 193.508L618.642 188.439L619.935 183.611L624.728 177.892L658.919 182.12Z" fill="#9F616A"/>
<path d="M645.133 130.906C653.589 130.868 660.414 123.978 660.376 115.518C660.337 107.058 653.451 100.23 644.995 100.268C636.539 100.307 629.714 107.196 629.753 115.656C629.791 124.117 636.677 130.944 645.133 130.906Z" fill="#9F616A"/>
<path d="M628.947 141.931L637.685 136.632L655.201 134.799L670.705 138.236L670.679 166.726L661.135 187.808L619.935 183.611L618.156 177.887C618.156 177.887 606.697 162.632 618.924 153.811L628.947 141.931Z" fill="#3D3446"/>
<path d="M631.143 143.236L628.947 141.931C628.947 141.931 617.128 144.176 614.531 151.201C611.934 158.225 609.448 189.795 609.448 189.795L620.406 191.047L624.233 165.183L631.143 143.236Z" fill="#2F2E41"/>
<path d="M661.151 191.315L661.195 201.051C661.195 201.051 672.652 215.808 666.57 227.232C666.57 227.232 679.824 251.718 680.74 260.48L693.188 300.748C693.188 300.748 723.993 331.291 721.464 353.218L723.248 360.223L703.135 369.08L698.726 362.964L664.29 304.385L635.134 251.043L630.162 314.182C630.162 314.182 633.888 363.256 624.274 368.559L623.433 376.453L602.981 376.545L602.947 369.046C602.947 369.046 595.241 342.392 599.531 322.21L597.395 237.187C597.395 237.187 605.119 201.211 614.729 195.031L618.194 186.249L661.151 191.315Z" fill="#FFD700"/>
<path d="M634.453 95.6869C637.387 93.8792 640.753 92.8934 644.198 92.8324C647.643 92.7714 651.041 93.6375 654.037 95.3402C657.033 97.043 659.517 99.5197 661.229 102.511C662.941 105.503 663.818 108.9 663.768 112.347C655.211 112.78 646.221 112.923 637.104 112.981L634.926 107.716L633.68 113.001C630.902 113.013 628.118 113.022 625.33 113.028C625.201 109.591 625.975 106.181 627.576 103.138C629.177 100.095 631.549 97.5256 634.453 95.6869Z" fill="#2F2E41"/>
<path d="M609.619 97.6665L403.722 151.042L439.715 290.016L645.612 236.641L609.619 97.6665Z" fill="white"/>
<path d="M646.506 237.167L439.189 290.91L402.828 150.516L610.145 96.7722L646.506 237.167ZM440.241 289.122L644.718 236.114L609.093 98.561L404.616 151.568L440.241 289.122Z" fill="#3F3D56"/>
<path d="M449.225 255.041L620.322 210.687L595.075 113.202L423.977 157.557L449.225 255.041Z" fill="#E6E6E6"/>
<path d="M485.645 205.686C495.428 205.641 503.323 197.671 503.279 187.883C503.235 178.095 495.268 170.195 485.485 170.24C475.701 170.284 467.806 178.254 467.85 188.043C467.894 197.831 475.861 205.73 485.645 205.686Z" fill="#FFD700"/>
<path d="M553.033 226.892L468.908 248.7C468.803 248.729 468.696 248.748 468.587 248.757L490.517 169.493C490.649 169 490.909 168.552 491.27 168.193C491.632 167.834 492.082 167.577 492.575 167.45C493.068 167.322 493.587 167.327 494.077 167.465C494.567 167.603 495.012 167.869 495.366 168.236L534.052 207.584L535.905 209.467L553.033 226.892Z" fill="#3F3D56"/>
<path opacity="0.2" d="M553.033 226.892L524.311 234.338L533.103 210.193L533.736 208.455L534.053 207.584L535.905 209.467L553.033 226.892Z" fill="black"/>
<path d="M599.873 214.75L527.112 233.612L535.905 209.467L536.537 207.728L547.995 176.262C548.214 175.77 548.534 175.33 548.935 174.969C549.335 174.609 549.807 174.337 550.319 174.171C550.832 174.005 551.373 173.949 551.909 174.006C552.444 174.063 552.962 174.232 553.428 174.502C553.55 174.581 553.667 174.669 553.778 174.763L599.873 214.75Z" fill="#3F3D56"/>
<path d="M646.677 211.51C647.031 211.588 647.378 211.694 647.715 211.826L674.362 193.297L673.715 185.437L685.445 182.909L687.942 196.713C688.144 197.829 687.978 198.979 687.471 199.992C686.963 201.006 686.141 201.827 685.127 202.333L652.09 218.819C651.971 220.21 651.431 221.531 650.543 222.607C649.655 223.683 648.461 224.463 647.119 224.843C645.777 225.224 644.351 225.186 643.031 224.736C641.71 224.286 640.558 223.444 639.728 222.323C638.898 221.201 638.428 219.854 638.382 218.459C638.336 217.064 638.715 215.688 639.469 214.515C640.224 213.341 641.318 212.425 642.605 211.888C643.893 211.351 645.313 211.22 646.677 211.51Z" fill="#9F616A"/>
<path d="M664.423 139.579L670.705 138.236C670.705 138.236 684.547 133.352 685.503 150.88L687.441 192.073L674.434 193.885L668.887 157.968L664.423 139.579Z" fill="#2F2E41"/>
</g>
<defs>
<clipPath id="clip0_11_298">
<rect width="808.925" height="405.122" fill="white" transform="translate(0.593506 4.065) rotate(-0.258492)"/>
</clipPath>
</defs>
</svg>
